<?xml version="1.0" encoding="UTF-8" standalone="no"?>
<svg
   xmlns:dc="http://purl.org/dc/elements/1.1/"
   xmlns:cc="http://creativecommons.org/ns#"
   xmlns:rdf="http://www.w3.org/1999/02/22-rdf-syntax-ns#"
   xmlns:svg="http://www.w3.org/2000/svg"
   xmlns="http://www.w3.org/2000/svg"
   xmlns:sodipodi="http://sodipodi.sourceforge.net/DTD/sodipodi-0.dtd"
   xmlns:inkscape="http://www.inkscape.org/namespaces/inkscape"
   viewBox="0 0 133.94388 41.046829"
   height="41.046829"
   width="133.94388"
   xml:space="preserve"
   version="1.1"
   id="svg2"
   inkscape:version="0.92.2 (5c3e80d, 2017-08-06)"
   sodipodi:docname="MAP.svg"><sodipodi:namedview
     pagecolor="#ffffff"
     bordercolor="#666666"
     borderopacity="1"
     objecttolerance="10"
     gridtolerance="10"
     guidetolerance="10"
     inkscape:pageopacity="0"
     inkscape:pageshadow="2"
     inkscape:window-width="3840"
     inkscape:window-height="1541"
     id="namedview30"
     showgrid="false"
     fit-margin-top="0"
     fit-margin-left="0"
     fit-margin-right="0"
     fit-margin-bottom="0"
     inkscape:zoom="8.276831"
     inkscape:cx="29.808158"
     inkscape:cy="-30.812671"
     inkscape:window-x="-11"
     inkscape:window-y="-11"
     inkscape:window-maximized="1"
     inkscape:current-layer="svg2" /><metadata
     id="metadata8"><rdf:RDF><cc:Work
         rdf:about=""><dc:format>image/svg+xml</dc:format><dc:type
           rdf:resource="http://purl.org/dc/dcmitype/StillImage" /><dc:title></dc:title></cc:Work></rdf:RDF></metadata><defs
     id="defs6" /><g
     id="g939"
     transform="translate(0,-1.186e-5)"><path
       inkscape:connector-curvature="0"
       d="m 133.24351,26.110802 -18.96119,13.419403 c -1.40033,0.991779 -3.55939,1.516635 -5.19249,1.516635 -1.69248,0 -2.91756,-1.224857 -2.91756,-2.916926 0,-1.692483 1.22508,-2.917154 2.91756,-2.917154 0.46678,0 1.2253,-0.175455 1.6331,-0.408637 L 128.10978,23.077161 V 18.012127 L 110.72293,6.3433054 c -0.4078,-0.2917361 -1.16632,-0.4667777 -1.6331,-0.4667777 -1.69248,0 -2.91756,-1.2250845 -2.91756,-2.9175674 0,-1.6916553 1.22508,-2.91694672 2.91756,-2.91694672 1.6331,0 3.79216,0.52491798 5.19249,1.51661362 l 18.96119,13.4194448 c 0.17545,0.175248 0.70037,0.817068 0.70037,1.049836 v 8.974504 c 0,0.233182 -0.52492,0.933555 -0.70037,1.10839"
       style="fill:#f3624e;fill-opacity:1;fill-rule:nonzero;stroke:none;stroke-width:0.0206905"
       id="path14" /><path
       inkscape:connector-curvature="0"
       d="M 111.39807,14.978072 92.771857,1.7959473 v 7.1611889 l 13.492073,9.0549908 v 5.065034 L 88.877077,34.804123 c -0.407809,0.233182 -1.166323,0.408637 -1.632687,0.408637 -1.692483,0 -2.917567,1.224671 -2.917567,2.917154 0,1.692069 1.225084,2.916926 2.917567,2.916926 1.632687,0 3.792155,-0.524856 5.192074,-1.516635 L 111.39807,26.110802 c 0.17545,-0.174835 0.69996,-0.875208 0.69996,-1.10839 v -8.974504 c 0,-0.232768 -0.52451,-0.874588 -0.69996,-1.049836"
       style="fill:#f3624e;fill-opacity:1;fill-rule:nonzero;stroke:none;stroke-width:0.0206905"
       id="path16" /><path
       inkscape:connector-curvature="0"
       d="M 111.39807,26.0688 92.436464,39.488266 c -1.399919,0.991675 -3.559387,1.516613 -5.192074,1.516613 -1.692483,0 -2.917567,-1.224939 -2.917567,-2.916967 0,-1.692483 1.225084,-2.917361 2.917567,-2.917361 0.466364,0 1.224878,-0.175248 1.632687,-0.408844 L 106.26393,23.035159 V 17.970125 L 88.877077,6.3008898 C 88.469268,6.0095676 87.710754,5.834526 87.24439,5.834526 c -1.692483,0 -2.917567,-1.2252915 -2.917567,-2.9175674 0,-1.6916553 1.225084,-2.91694674 2.917567,-2.91694674 1.632687,0 3.792155,0.52491799 5.192074,1.51661364 L 111.39807,14.93607 c 0.17545,0.175249 0.69996,0.817068 0.69996,1.049836 v 8.974504 c 0,0.233182 -0.52451,0.933349 -0.69996,1.10839"
       style="fill:#f3624e;fill-opacity:1;fill-rule:nonzero;stroke:none;stroke-width:0.0206905"
       id="path18" /><path
       inkscape:connector-curvature="0"
       d="m 133.24351,26.0688 -18.96119,13.419466 c -1.40033,0.991675 -3.55939,1.516613 -5.19249,1.516613 -1.69248,0 -2.91756,-1.224939 -2.91756,-2.916967 0,-1.692483 1.22508,-2.917361 2.91756,-2.917361 0.46678,0 1.2253,-0.175248 1.6331,-0.408844 L 128.10978,23.035159 V 17.970125 L 110.72293,6.3008898 c -0.4078,-0.2913222 -1.16632,-0.4663638 -1.6331,-0.4663638 -1.69248,0 -2.91756,-1.2252915 -2.91756,-2.9175674 0,-1.6916553 1.22508,-2.91694674 2.91756,-2.91694674 1.6331,0 3.79216,0.52491799 5.19249,1.51661364 L 133.24351,14.93607 c 0.17545,0.175249 0.70037,0.817068 0.70037,1.049836 v 8.974504 c 0,0.233182 -0.52492,0.933349 -0.70037,1.10839"
       style="fill:#f3624e;fill-opacity:1;fill-rule:nonzero;stroke:none;stroke-width:0.0206905"
       id="path20" /><path
       inkscape:connector-curvature="0"
       d="M 56.940049,26.419297 H 40.837047 v -4.259346 c 0,-2.042359 0.875415,-3.208683 1.808763,-5.542364 L 47.138339,5.9404613 h 3.442692 c 0.87438,1.9833913 4.900545,11.0265877 4.900545,11.0265877 0.933555,2.158847 1.458473,4.142859 1.458473,5.192902 z M 87.121488,0.10594722 H 72.477373 c -0.01614,0 -0.03228,0.004759 -0.04842,0.004759 -0.190352,0.001655 -0.366221,0.0242079 -0.538366,0.0529677 -0.575403,0.0949694 -1.039284,0.33539301 -1.402196,0.66685482 -0.01055,0.0101383 -0.02235,0.0200698 -0.0331,0.0310357 -0.104281,0.0945556 -0.19656,0.20214626 -0.285322,0.31449566 -0.04531,0.058968 -0.0898,0.1179358 -0.130144,0.180628 -0.05007,0.07552 -0.09373,0.1564202 -0.136557,0.2379408 -0.04821,0.093728 -0.09394,0.1874559 -0.130971,0.285322 -0.03393,0.087314 -0.06062,0.1806281 -0.0869,0.2747698 -0.02379,0.084417 -0.04883,0.1682138 -0.06559,0.2542863 -0.018,0.1009696 -0.03269,0.2044221 -0.04366,0.3111851 -0.0052,0.057726 -0.0068,0.115453 -0.0091,0.1735933 -0.0017,0.043243 -0.0066,0.084624 -0.0066,0.1289018 v 0.073658 c 0.02793,1.4338516 0.981972,2.8441161 2.875773,2.8441161 h 14.685289 c 2.392857,0 4.376248,1.9833913 4.376248,4.3754197 v 2.917154 c 0,2.450997 -1.983391,4.434388 -4.376248,4.434388 l -0.652992,0.0035 h -14.02671 c -1.889664,0 -2.846186,1.405506 -2.88136,2.836875 v 14.77593 H 62.774563 V 22.159951 c 0,-1.983391 -0.816654,-4.259346 -1.984012,-7.059805 L 55.714758,2.8478523 C 55.131286,1.4475192 54.781409,0.10594722 52.506282,0.10594722 h -7.293194 c -1.808764,0 -2.508931,1.28343168 -3.15075,2.74190508 L 36.81171,15.100146 c -1.283846,2.975707 -1.808764,5.367736 -1.808764,7.059805 v 4.220448 H 27.595954 V 3.022687 c 0,-3.44207158 -4.141824,-3.55855909 -5.659265,-1.1665304 L 13.768886,14.808617 5.6591828,1.8561566 C 4.0835392,-0.53587209 0,-0.41938458 0,3.022687 v 35.123365 c 0,3.850523 5.8341624,3.850523 5.8341624,0 V 13.174895 l 4.5511026,6.826209 c 0.407748,0.524918 0.407748,1.225292 0.407748,2.04236 v 0.582644 c 0,2.100707 1.517421,3.034262 2.975873,3.034262 1.516635,0 3.034055,-0.933555 3.034055,-3.034262 v -0.582644 c 0,-0.817068 0,-1.517442 0.349566,-2.04236 l 4.609347,-6.826209 v 16.076311 c 0,2.015669 1.598134,2.965777 3.121783,2.870807 h 10.119309 v 5.965899 c 0,3.908663 5.834101,3.908663 5.834101,0 v -5.834928 h 16.103002 v 5.834928 c 0,1.952355 1.455991,2.92934 2.913222,2.931037 v 0.0064 h 12.522305 c 0.06869,0.0021 0.13573,0.0021 0.204422,0 h 0.05628 v -0.0044 c 1.403851,-0.06741 2.758871,-1.019586 2.758871,-2.874924 V 23.501523 H 87.12149 c 5.660094,0 10.210348,-4.609222 10.210348,-10.268488 v -2.917154 c 0,-5.6592652 -4.550254,-10.20993378 -10.210348,-10.20993378"
       style="fill:#231f20;fill-opacity:1;fill-rule:nonzero;stroke:none;stroke-width:0.0206905"
       id="path22" /><path
       inkscape:connector-curvature="0"
       d="m 75.395147,23.505454 h 5.501811 v -0.0039 h -5.501811 z"
       style="fill:#231f20;fill-opacity:1;fill-rule:nonzero;stroke:none;stroke-width:0.0206905"
       id="path24" /></g></svg>